<svg version="1.1" id="Layer_1" xmlns="http://www.w3.org/2000/svg" xmlns:xlink="http://www.w3.org/1999/xlink" x="0px" y="0px"
	 width="100%" viewBox="0 0 500 500" enable-background="new 0 0 500 500" xml:space="preserve">
<path fill="#FFFFFE" opacity="1.000000" stroke="none" 
	d="
M301.000000,501.000000 
	C200.666687,501.000000 100.833382,501.000000 1.000054,501.000000 
	C1.000036,334.333405 1.000036,167.666794 1.000018,1.000143 
	C167.666565,1.000095 334.333130,1.000095 500.999756,1.000048 
	C500.999847,167.666519 500.999847,334.333038 500.999939,500.999786 
	C434.500000,501.000000 368.000000,501.000000 301.000000,501.000000 
M307.500000,418.122833 
	C355.236969,418.122833 402.973907,418.122833 450.675568,418.122833 
	C450.675568,295.373077 450.675568,173.336945 450.675568,51.339211 
	C317.324554,51.339211 184.297989,51.339211 51.323891,51.339211 
	C51.323891,173.721268 51.323891,295.764282 51.323891,418.122894 
	C136.597977,418.122894 221.548981,418.122894 307.500000,418.122833 
M425.908142,470.498596 
	C427.802551,473.561554 429.468475,472.831390 431.038544,470.199890 
	C432.753662,467.325317 434.483521,464.459503 436.206940,461.589844 
	C436.536682,461.728455 436.866425,461.867065 437.196167,462.005676 
	C437.196167,466.266724 437.196167,470.527802 437.196167,475.102509 
	C439.146790,474.942810 440.694885,474.816101 442.148560,474.697113 
	C442.148560,466.322662 442.148560,458.412567 442.148560,449.726959 
	C432.865204,451.060669 433.849792,460.892120 428.432129,464.489899 
	C423.061249,460.898926 423.918243,450.861572 414.530579,449.833099 
	C414.530579,458.679962 414.530579,466.596344 414.530579,474.763916 
	C416.341125,474.763916 417.905518,474.763916 420.039307,474.763916 
	C420.039307,470.550568 420.039307,466.557587 420.039307,462.564606 
	C420.326538,462.510345 420.613770,462.456085 420.900970,462.401794 
	C422.448486,464.900208 423.996002,467.398651 425.908142,470.498596 
M121.083168,466.769562 
	C121.083168,465.018372 121.083168,463.267151 121.083168,461.249573 
	C127.705902,465.004944 128.920456,474.486450 137.777145,475.258240 
	C137.777145,466.454926 137.777145,458.396423 137.777145,450.012421 
	C135.836349,450.164764 134.277649,450.287140 132.223480,450.448395 
	C132.223480,455.041718 132.223480,459.245026 132.223480,464.796143 
	C129.065155,460.940826 126.895828,458.065613 124.482780,455.412079 
	C122.141579,452.837463 120.675461,448.281738 115.580139,450.733734 
	C115.580139,458.785675 115.580139,466.708435 115.580139,474.777252 
	C117.455582,474.777252 119.041931,474.777252 121.083206,474.777252 
	C121.083206,472.263245 121.083206,469.967346 121.083168,466.769562 
M257.135498,455.575134 
	C257.135498,458.261261 257.135498,460.947418 257.135498,463.894806 
	C250.579208,459.790436 249.292236,450.682434 240.376419,449.787018 
	C240.376419,458.561829 240.376419,466.618530 240.376419,474.783752 
	C242.269882,474.783752 243.863495,474.783752 246.013367,474.783752 
	C246.013367,470.226807 246.013367,465.870422 246.013367,461.443085 
	C252.651291,464.970764 253.620865,474.734100 262.639465,475.168030 
	C262.639465,466.433594 262.639465,458.374359 262.639465,450.023132 
	C260.684479,450.157745 259.103363,450.266602 257.328949,450.388794 
	C257.253571,452.054077 257.194611,453.356964 257.135498,455.575134 
M367.341400,475.448792 
	C376.429413,474.022034 380.675690,469.353119 380.127625,461.389923 
	C379.652771,454.490295 374.030670,449.766632 366.411102,449.865509 
	C358.987823,449.961792 353.452972,454.968292 353.078705,461.925110 
	C352.680054,469.335083 357.629089,474.299927 367.341400,475.448792 
M410.032288,465.041809 
	C410.057037,463.714752 410.196136,462.378113 410.086365,461.062286 
	C409.664062,456.001434 406.101013,451.825317 401.033783,450.330841 
	C395.338196,448.651001 389.075012,450.493774 385.690979,454.844940 
	C382.565125,458.864197 382.155548,464.422241 384.755646,468.897766 
	C387.556763,473.719330 392.041595,475.637207 397.351013,475.391724 
	C403.585144,475.103455 407.990570,472.021484 410.032288,465.041809 
M205.198517,473.599854 
	C207.250641,474.237427 209.302765,474.874969 212.778442,475.954803 
	C210.395386,472.194427 208.912766,469.854889 207.443024,467.535675 
	C214.360825,459.919220 213.042862,452.191772 204.307449,450.598053 
	C199.895126,449.793060 195.214722,450.457458 190.561615,450.457458 
	C190.561615,458.770264 190.561615,466.685425 190.561615,474.636139 
	C192.551941,474.636139 194.259659,474.636139 195.932510,474.636139 
	C196.109711,472.296906 196.257812,470.341827 196.391602,468.575806 
	C201.268250,466.555328 202.831192,470.088989 205.198517,473.599854 
M92.915123,474.819550 
	C103.072319,476.393463 110.109566,472.226379 110.972824,464.126678 
	C111.658958,457.688843 107.592598,451.784698 101.384361,450.204712 
	C94.086304,448.347412 86.923233,451.796539 84.594055,458.289429 
	C82.239212,464.853973 85.079681,470.915070 92.915123,474.819550 
M179.398529,470.234406 
	C177.286179,470.234406 175.173828,470.234406 172.585693,470.234406 
	C172.684647,468.117126 172.754791,466.616608 172.846069,464.663696 
	C176.809708,464.663696 180.228882,464.663696 184.368362,464.663696 
	C182.714905,456.704163 176.130875,462.193024 172.810059,459.122589 
	C172.810059,458.195099 172.810059,456.814117 172.810059,454.829163 
	C177.093353,454.829163 181.145081,454.829163 185.490952,454.829163 
	C185.383530,452.963654 185.311829,451.718658 185.229385,450.286804 
	C179.005325,450.286804 173.097778,450.286804 166.903717,450.286804 
	C166.903717,458.562866 166.903717,466.625305 166.903717,474.827515 
	C173.240128,474.827515 179.336029,474.827515 185.604736,474.827515 
	C185.604736,473.284241 185.604736,471.944061 185.604736,470.234619 
	C183.612808,470.234619 181.977234,470.234619 179.398529,470.234406 
M341.578491,470.826385 
	C343.336212,474.196259 345.678284,476.247650 350.044434,474.419373 
	C348.518860,471.986908 347.068878,469.674957 345.429962,467.061798 
	C349.825043,464.495178 351.491364,460.352600 349.533417,456.375000 
	C348.227081,453.721161 344.725098,451.265717 341.756927,450.528503 
	C337.759644,449.535645 333.330414,450.282135 329.010071,450.282135 
	C329.010071,458.706177 329.010071,466.608276 329.010071,474.757599 
	C330.824860,474.757599 332.404205,474.757599 334.181824,474.757599 
	C334.422028,472.585358 334.651123,470.513702 335.026367,467.120209 
	C337.494476,468.360779 339.306061,469.271393 341.578491,470.826385 
M217.882477,474.999176 
	C223.678665,474.999176 229.474869,474.999176 235.285919,474.999176 
	C236.471115,471.451721 235.596161,469.977600 232.053757,470.174225 
	C228.937988,470.347137 225.805023,470.210419 222.418732,470.210419 
	C222.293640,468.956024 222.125748,468.165344 222.162048,467.384155 
	C222.197983,466.610962 222.439972,465.847412 222.575592,465.160522 
	C233.966492,464.078613 233.966492,464.078613 232.865509,459.951416 
	C229.524658,459.951416 226.077240,459.951416 222.396698,459.951416 
	C222.396698,458.184845 222.396698,456.797028 222.396698,454.840637 
	C226.709412,454.840637 230.786682,454.840637 235.123322,454.840637 
	C235.015076,452.997589 234.941071,451.737946 234.858597,450.333801 
	C228.646881,450.333801 222.737503,450.333801 216.990341,450.333801 
	C216.990341,458.663300 216.990341,466.709869 217.882477,474.999176 
M303.640106,470.219513 
	C299.142029,470.010559 301.086792,467.275909 301.291443,465.119751 
	C312.156616,464.191589 312.156616,464.191589 311.286346,459.917236 
	C307.972870,459.917236 304.557709,459.917236 300.804657,459.917236 
	C300.932648,458.031311 301.026855,456.643280 301.143646,454.922363 
	C304.134705,454.922363 306.767975,454.943634 309.400757,454.917694 
	C314.130066,454.871094 314.129944,454.859253 313.030060,450.377777 
	C307.130920,450.377777 301.231781,450.377777 295.297485,450.377777 
	C295.297485,458.722076 295.297485,466.749939 295.297485,474.728271 
	C301.743988,474.728271 307.824310,474.728271 313.796417,474.728271 
	C314.617554,471.580048 313.983337,469.895569 310.572205,470.195923 
	C308.593750,470.370117 306.587250,470.226257 303.640106,470.219513 
M290.511139,470.673584 
	C289.017639,468.631805 287.753174,467.559204 284.871063,469.318420 
	C281.509460,471.370453 277.678162,470.868683 274.994904,467.546417 
	C272.522095,464.484711 272.480133,461.015167 274.808716,457.857208 
	C277.355133,454.403900 281.128021,453.779724 284.602234,455.709564 
	C287.780273,457.474884 289.272858,456.821716 290.583038,453.921509 
	C284.505096,448.470001 275.825958,448.494598 270.759674,453.831207 
	C266.109924,458.729156 266.169312,466.615448 270.892487,471.458862 
	C276.134949,476.834778 284.621948,476.794159 290.511139,470.673584 
M73.752190,475.179779 
	C76.316002,474.076752 78.879807,472.973724 81.586266,471.809326 
	C79.522255,468.604858 78.281326,467.580109 75.393806,469.316467 
	C72.013275,471.349335 68.153183,470.921448 65.498741,467.586212 
	C63.082977,464.550903 63.010433,461.002167 65.334602,457.875946 
	C68.021957,454.261292 71.869072,453.740265 75.540169,455.928741 
	C78.842125,457.897125 79.812210,456.146851 81.102997,453.789093 
	C76.794525,449.414642 71.787476,449.016571 66.598740,450.560730 
	C60.308674,452.432678 56.923199,458.491638 58.060417,465.090546 
	C59.196167,471.680939 64.685547,475.436768 73.752190,475.179779 
M162.531845,454.205597 
	C162.906036,452.202332 163.554626,450.065704 160.249176,450.075592 
	C154.984024,450.091370 149.718796,450.079773 143.940918,450.079773 
	C143.940918,454.500183 143.940933,458.436798 143.940933,462.373383 
	C143.940933,466.475189 143.940918,470.577026 143.940918,475.038727 
	C146.206680,474.928314 147.903702,474.845642 149.641342,474.760986 
	C149.797195,471.618805 149.925598,469.030273 150.074600,466.026611 
	C153.786942,466.026611 157.211075,466.026611 161.040039,466.026611 
	C160.932526,464.216583 160.852600,462.871094 160.742676,461.020630 
	C156.945236,461.020630 153.547058,461.020630 150.168701,461.020630 
	C150.168701,458.747192 150.168701,457.017975 150.168701,454.739410 
	C154.271103,454.739410 158.054031,454.739410 162.531845,454.205597 
z"/>
<path fill="#E67E22" opacity="1.000000" stroke="none" 
	d="
M307.000000,418.122864 
	C221.548981,418.122894 136.597977,418.122894 51.323891,418.122894 
	C51.323891,295.764282 51.323891,173.721268 51.323891,51.339211 
	C184.297989,51.339211 317.324554,51.339211 450.675568,51.339211 
	C450.675568,173.336945 450.675568,295.373077 450.675568,418.122833 
	C402.973907,418.122833 355.236969,418.122833 307.000000,418.122864 
M320.501801,107.396179 
	C313.680481,107.572914 306.842529,107.506897 300.041107,107.973541 
	C282.199860,109.197639 267.007202,124.212090 266.018616,141.983063 
	C265.381042,153.444275 265.581390,164.951843 265.388153,176.438324 
	C265.358673,178.190048 265.231140,179.940125 265.134735,181.994019 
	C252.992111,181.994019 241.351547,181.982193 229.711029,181.996445 
	C204.314224,182.027527 188.191833,198.096039 188.142380,223.471024 
	C188.106354,241.965942 188.135025,260.460999 188.134888,278.955994 
	C188.134872,280.548431 188.134888,282.140869 188.134888,283.755157 
	C198.129242,283.755157 207.397629,283.755157 217.353806,283.755157 
	C217.353806,261.786652 217.353806,240.060379 217.353806,217.741425 
	C243.421219,217.741425 268.805054,217.741425 294.927856,217.741425 
	C294.927856,192.245941 294.927856,167.352112 294.927856,142.044632 
	C318.768372,142.044632 341.864014,142.044632 365.270813,142.044632 
	C365.270813,130.387085 365.270813,119.161819 365.270813,107.396599 
	C350.403961,107.396599 335.952515,107.396599 320.501801,107.396179 
M272.141907,323.681671 
	C267.602631,329.326019 265.353210,335.831390 265.163361,343.011810 
	C264.628876,363.228485 281.401367,377.650970 303.349731,375.927887 
	C317.625977,374.807129 330.077271,364.234985 332.821136,350.904205 
	C335.825836,336.306488 329.477264,322.583832 316.463348,315.546021 
	C302.479584,307.983734 283.953705,311.194977 272.141907,323.681671 
M205.601013,324.122925 
	C214.009964,324.122925 222.418915,324.122925 230.704025,324.122925 
	C230.704025,319.908936 230.704025,316.484528 230.704025,313.092773 
	C215.007782,313.092773 199.635101,313.092773 183.938797,313.092773 
	C183.938797,323.600586 183.938797,333.734863 183.938797,343.869141 
	C183.938797,354.129486 183.938797,364.389801 183.938797,374.714508 
	C200.280304,374.714508 216.010254,374.714508 231.793854,374.714508 
	C231.793854,370.857788 231.793854,367.297302 231.793854,363.251373 
	C220.556503,363.251373 209.639923,363.251373 198.445312,363.251373 
	C198.445312,358.356476 198.445312,353.955109 198.445312,348.974243 
	C208.006729,348.974243 217.392456,348.974243 226.800430,348.974243 
	C226.800430,344.993622 226.800430,341.598297 226.800430,337.733368 
	C217.227722,337.733368 207.978882,337.733368 198.461227,337.733368 
	C198.461227,333.035736 198.461227,328.819702 198.461227,324.123016 
	C200.717819,324.123016 202.675781,324.123016 205.601013,324.122925 
M110.688484,373.994873 
	C126.062508,378.762115 142.760925,374.591583 148.525299,364.398651 
	C145.643692,361.810486 142.734985,359.197937 139.898392,356.650208 
	C129.262909,365.554199 117.596451,366.008972 109.751297,358.202942 
	C102.832687,351.318848 101.748650,338.467682 108.424210,331.294647 
	C111.491982,327.998291 116.183655,325.456055 120.588272,324.331116 
	C127.964897,322.447113 134.518326,325.535919 139.936096,331.064331 
	C143.102966,328.089691 145.962296,325.403931 148.796387,322.741882 
	C140.182648,312.481079 125.120476,308.828979 111.418839,313.357117 
	C98.465942,317.637756 90.161583,328.642822 89.410072,342.523438 
	C88.669777,356.197144 96.089462,367.490601 110.688484,373.994873 
M369.256775,339.499969 
	C369.256775,351.256561 369.256775,363.013123 369.256775,374.684387 
	C384.952118,374.684387 399.872681,374.684387 414.789185,374.684387 
	C414.789185,370.762268 414.789185,367.173981 414.789185,363.048462 
	C404.441376,363.048462 394.373932,363.048462 383.929443,363.048462 
	C383.929443,346.064209 383.929443,329.621399 383.929443,312.863251 
	C378.961823,312.863251 374.387390,312.863251 369.257050,312.863251 
	C369.257050,321.597656 369.257050,330.048798 369.256775,339.499969 
M235.616959,147.842255 
	C238.989777,140.080643 237.826233,132.082458 232.598221,127.091545 
	C227.020645,121.766922 219.296402,120.429886 212.817062,123.667519 
	C205.623001,127.262283 202.187836,133.731583 203.009155,142.138351 
	C203.646866,148.665833 208.978302,154.547638 215.919754,156.381729 
	C223.554764,158.399094 230.098007,155.713043 235.616959,147.842255 
z"/>
<path fill="#E7852E" opacity="1.000000" stroke="none" 
	d="
M425.725830,470.197815 
	C423.996002,467.398651 422.448486,464.900208 420.900970,462.401794 
	C420.613770,462.456085 420.326538,462.510345 420.039307,462.564606 
	C420.039307,466.557587 420.039307,470.550568 420.039307,474.763916 
	C417.905518,474.763916 416.341125,474.763916 414.530579,474.763916 
	C414.530579,466.596344 414.530579,458.679962 414.530579,449.833099 
	C423.918243,450.861572 423.061249,460.898926 428.432129,464.489899 
	C433.849792,460.892120 432.865204,451.060669 442.148560,449.726959 
	C442.148560,458.412567 442.148560,466.322662 442.148560,474.697113 
	C440.694885,474.816101 439.146790,474.942810 437.196167,475.102509 
	C437.196167,470.527802 437.196167,466.266724 437.196167,462.005676 
	C436.866425,461.867065 436.536682,461.728455 436.206940,461.589844 
	C434.483521,464.459503 432.753662,467.325317 431.038544,470.199890 
	C429.468475,472.831390 427.802551,473.561554 425.725830,470.197815 
z"/>
<path fill="#E7842C" opacity="1.000000" stroke="none" 
	d="
M121.083191,467.220520 
	C121.083206,469.967346 121.083206,472.263245 121.083206,474.777252 
	C119.041931,474.777252 117.455582,474.777252 115.580139,474.777252 
	C115.580139,466.708435 115.580139,458.785675 115.580139,450.733734 
	C120.675461,448.281738 122.141579,452.837463 124.482780,455.412079 
	C126.895828,458.065613 129.065155,460.940826 132.223480,464.796143 
	C132.223480,459.245026 132.223480,455.041718 132.223480,450.448395 
	C134.277649,450.287140 135.836349,450.164764 137.777145,450.012421 
	C137.777145,458.396423 137.777145,466.454926 137.777145,475.258240 
	C128.920456,474.486450 127.705902,465.004944 121.083168,461.249573 
	C121.083168,463.267151 121.083168,465.018372 121.083191,467.220520 
z"/>
<path fill="#E7842C" opacity="1.000000" stroke="none" 
	d="
M257.135559,455.117493 
	C257.194611,453.356964 257.253571,452.054077 257.328949,450.388794 
	C259.103363,450.266602 260.684479,450.157745 262.639465,450.023132 
	C262.639465,458.374359 262.639465,466.433594 262.639465,475.168030 
	C253.620865,474.734100 252.651291,464.970764 246.013367,461.443085 
	C246.013367,465.870422 246.013367,470.226807 246.013367,474.783752 
	C243.863495,474.783752 242.269882,474.783752 240.376419,474.783752 
	C240.376419,466.618530 240.376419,458.561829 240.376419,449.787018 
	C249.292236,450.682434 250.579208,459.790436 257.135498,463.894806 
	C257.135498,460.947418 257.135498,458.261261 257.135559,455.117493 
z"/>
<path fill="#E7842C" opacity="1.000000" stroke="none" 
	d="
M366.953735,475.452148 
	C357.629089,474.299927 352.680054,469.335083 353.078705,461.925110 
	C353.452972,454.968292 358.987823,449.961792 366.411102,449.865509 
	C374.030670,449.766632 379.652771,454.490295 380.127625,461.389923 
	C380.675690,469.353119 376.429413,474.022034 366.953735,475.452148 
M374.171204,464.156097 
	C374.153076,458.114380 372.161285,455.296631 367.602600,454.863708 
	C363.442444,454.468628 359.846619,456.909698 359.155518,460.856842 
	C358.451172,464.879913 359.772522,468.152863 363.679626,469.815796 
	C367.886810,471.606537 371.544922,469.789978 374.171204,464.156097 
z"/>
<path fill="#E7842C" opacity="1.000000" stroke="none" 
	d="
M409.976074,465.453064 
	C407.990570,472.021484 403.585144,475.103455 397.351013,475.391724 
	C392.041595,475.637207 387.556763,473.719330 384.755646,468.897766 
	C382.155548,464.422241 382.565125,458.864197 385.690979,454.844940 
	C389.075012,450.493774 395.338196,448.651001 401.033783,450.330841 
	C406.101013,451.825317 409.664062,456.001434 410.086365,461.062286 
	C410.196136,462.378113 410.057037,463.714752 409.976074,465.453064 
M401.927795,468.510834 
	C402.693542,466.904968 403.854004,465.366821 404.143433,463.679260 
	C404.760010,460.084076 403.588745,456.498047 399.981018,455.651154 
	C397.329437,455.028687 393.121643,455.488495 391.565216,457.222931 
	C389.818817,459.169037 389.254456,463.374603 390.005615,466.091187 
	C391.228851,470.515106 395.645874,471.284515 401.927795,468.510834 
z"/>
<path fill="#E7852E" opacity="1.000000" stroke="none" 
	d="
M204.987656,473.269562 
	C202.831192,470.088989 201.268250,466.555328 196.391602,468.575806 
	C196.257812,470.341827 196.109711,472.296906 195.932510,474.636139 
	C194.259659,474.636139 192.551941,474.636139 190.561615,474.636139 
	C190.561615,466.685425 190.561615,458.770264 190.561615,450.457458 
	C195.214722,450.457458 199.895126,449.793060 204.307449,450.598053 
	C213.042862,452.191772 214.360825,459.919220 207.443024,467.535675 
	C208.912766,469.854889 210.395386,472.194427 212.778442,475.954803 
	C209.302765,474.874969 207.250641,474.237427 204.987656,473.269562 
M202.587570,463.232819 
	C205.745560,462.609497 206.918976,460.296600 205.738541,457.751617 
	C203.719696,453.399048 199.807602,455.047211 196.324585,455.350403 
	C196.324585,458.106934 196.324585,460.518341 196.324585,463.376617 
	C198.302231,463.376617 200.048370,463.376617 202.587570,463.232819 
z"/>
<path fill="#E7832B" opacity="1.000000" stroke="none" 
	d="
M92.560669,474.676025 
	C85.079681,470.915070 82.239212,464.853973 84.594055,458.289429 
	C86.923233,451.796539 94.086304,448.347412 101.384361,450.204712 
	C107.592598,451.784698 111.658958,457.688843 110.972824,464.126678 
	C110.109566,472.226379 103.072319,476.393463 92.560669,474.676025 
M94.225594,469.796570 
	C95.367897,469.977173 96.778854,470.672058 97.602142,470.241974 
	C100.074844,468.950287 103.592049,467.656555 104.315987,465.545471 
	C105.146599,463.123352 104.285820,459.027893 102.549171,457.144684 
	C100.999115,455.463837 96.982857,454.796967 94.533272,455.457275 
	C88.668304,457.038239 88.282722,464.655670 94.225594,469.796570 
z"/>
<path fill="#E7852E" opacity="1.000000" stroke="none" 
	d="
M179.870087,470.234497 
	C181.977234,470.234619 183.612808,470.234619 185.604736,470.234619 
	C185.604736,471.944061 185.604736,473.284241 185.604736,474.827515 
	C179.336029,474.827515 173.240128,474.827515 166.903717,474.827515 
	C166.903717,466.625305 166.903717,458.562866 166.903717,450.286804 
	C173.097778,450.286804 179.005325,450.286804 185.229385,450.286804 
	C185.311829,451.718658 185.383530,452.963654 185.490952,454.829163 
	C181.145081,454.829163 177.093353,454.829163 172.810059,454.829163 
	C172.810059,456.814117 172.810059,458.195099 172.810059,459.122589 
	C176.130875,462.193024 182.714905,456.704163 184.368362,464.663696 
	C180.228882,464.663696 176.809708,464.663696 172.846069,464.663696 
	C172.754791,466.616608 172.684647,468.117126 172.585693,470.234406 
	C175.173828,470.234406 177.286179,470.234406 179.870087,470.234497 
z"/>
<path fill="#E78229" opacity="1.000000" stroke="none" 
	d="
M341.348083,470.504181 
	C339.306061,469.271393 337.494476,468.360779 335.026367,467.120209 
	C334.651123,470.513702 334.422028,472.585358 334.181824,474.757599 
	C332.404205,474.757599 330.824860,474.757599 329.010071,474.757599 
	C329.010071,466.608276 329.010071,458.706177 329.010071,450.282135 
	C333.330414,450.282135 337.759644,449.535645 341.756927,450.528503 
	C344.725098,451.265717 348.227081,453.721161 349.533417,456.375000 
	C351.491364,460.352600 349.825043,464.495178 345.429962,467.061798 
	C347.068878,469.674957 348.518860,471.986908 350.044434,474.419373 
	C345.678284,476.247650 343.336212,474.196259 341.348083,470.504181 
M343.952332,461.015289 
	C344.201080,455.198822 342.595276,454.204437 334.034149,455.504669 
	C334.432251,458.075348 334.838440,460.698303 335.244629,463.321259 
	C338.023987,462.797302 340.803314,462.273315 343.952332,461.015289 
z"/>
<path fill="#E88935" opacity="1.000000" stroke="none" 
	d="
M217.436401,474.877808 
	C216.990341,466.709869 216.990341,458.663300 216.990341,450.333801 
	C222.737503,450.333801 228.646881,450.333801 234.858597,450.333801 
	C234.941071,451.737946 235.015076,452.997589 235.123322,454.840637 
	C230.786682,454.840637 226.709412,454.840637 222.396698,454.840637 
	C222.396698,456.797028 222.396698,458.184845 222.396698,459.951416 
	C226.077240,459.951416 229.524658,459.951416 232.865509,459.951416 
	C233.966492,464.078613 233.966492,464.078613 222.575592,465.160522 
	C222.439972,465.847412 222.197983,466.610962 222.162048,467.384155 
	C222.125748,468.165344 222.293640,468.956024 222.418732,470.210419 
	C225.805023,470.210419 228.937988,470.347137 232.053757,470.174225 
	C235.596161,469.977600 236.471115,471.451721 235.285919,474.999176 
	C229.474869,474.999176 223.678665,474.999176 217.436401,474.877808 
z"/>
<path fill="#E88631" opacity="1.000000" stroke="none" 
	d="
M304.116760,470.222504 
	C306.587250,470.226257 308.593750,470.370117 310.572205,470.195923 
	C313.983337,469.895569 314.617554,471.580048 313.796417,474.728271 
	C307.824310,474.728271 301.743988,474.728271 295.297485,474.728271 
	C295.297485,466.749939 295.297485,458.722076 295.297485,450.377777 
	C301.231781,450.377777 307.130920,450.377777 313.032532,450.381348 
	C314.129944,454.859253 314.130066,454.871094 309.400757,454.917694 
	C306.767975,454.943634 304.134705,454.922363 301.143646,454.922363 
	C301.026855,456.643280 300.932648,458.031311 300.804657,459.917236 
	C304.557709,459.917236 307.972870,459.917236 311.286346,459.917236 
	C312.156616,464.191589 312.156616,464.191589 301.291443,465.119751 
	C301.086792,467.275909 299.142029,470.010559 304.116760,470.222504 
z"/>
<path fill="#E7852E" opacity="1.000000" stroke="none" 
	d="
M290.533661,471.019196 
	C284.621948,476.794159 276.134949,476.834778 270.892487,471.458862 
	C266.169312,466.615448 266.109924,458.729156 270.759674,453.831207 
	C275.825958,448.494598 284.505096,448.470001 290.583038,453.921509 
	C289.272858,456.821716 287.780273,457.474884 284.602234,455.709564 
	C281.128021,453.779724 277.355133,454.403900 274.808716,457.857208 
	C272.480133,461.015167 272.522095,464.484711 274.994904,467.546417 
	C277.678162,470.868683 281.509460,471.370453 284.871063,469.318420 
	C287.753174,467.559204 289.017639,468.631805 290.533661,471.019196 
z"/>
<path fill="#E7842C" opacity="1.000000" stroke="none" 
	d="
M73.366333,475.239319 
	C64.685547,475.436768 59.196167,471.680939 58.060417,465.090546 
	C56.923199,458.491638 60.308674,452.432678 66.598740,450.560730 
	C71.787476,449.016571 76.794525,449.414642 81.102997,453.789093 
	C79.812210,456.146851 78.842125,457.897125 75.540169,455.928741 
	C71.869072,453.740265 68.021957,454.261292 65.334602,457.875946 
	C63.010433,461.002167 63.082977,464.550903 65.498741,467.586212 
	C68.153183,470.921448 72.013275,471.349335 75.393806,469.316467 
	C78.281326,467.580109 79.522255,468.604858 81.586266,471.809326 
	C78.879807,472.973724 76.316002,474.076752 73.366333,475.239319 
z"/>
<path fill="#E7852E" opacity="1.000000" stroke="none" 
	d="
M162.184402,454.472504 
	C158.054031,454.739410 154.271103,454.739410 150.168701,454.739410 
	C150.168701,457.017975 150.168701,458.747192 150.168701,461.020630 
	C153.547058,461.020630 156.945236,461.020630 160.742676,461.020630 
	C160.852600,462.871094 160.932526,464.216583 161.040039,466.026611 
	C157.211075,466.026611 153.786942,466.026611 150.074600,466.026611 
	C149.925598,469.030273 149.797195,471.618805 149.641342,474.760986 
	C147.903702,474.845642 146.206680,474.928314 143.940918,475.038727 
	C143.940918,470.577026 143.940933,466.475189 143.940933,462.373383 
	C143.940933,458.436798 143.940918,454.500183 143.940918,450.079773 
	C149.718796,450.079773 154.984024,450.091370 160.249176,450.075592 
	C163.554626,450.065704 162.906036,452.202332 162.184402,454.472504 
z"/>
<path fill="#FFFDFC" opacity="1.000000" stroke="none" 
	d="
M321.001404,107.396393 
	C335.952515,107.396599 350.403961,107.396599 365.270813,107.396599 
	C365.270813,119.161819 365.270813,130.387085 365.270813,142.044632 
	C341.864014,142.044632 318.768372,142.044632 294.927856,142.044632 
	C294.927856,167.352112 294.927856,192.245941 294.927856,217.741425 
	C268.805054,217.741425 243.421219,217.741425 217.353806,217.741425 
	C217.353806,240.060379 217.353806,261.786652 217.353806,283.755157 
	C207.397629,283.755157 198.129242,283.755157 188.134888,283.755157 
	C188.134888,282.140869 188.134872,280.548431 188.134888,278.955994 
	C188.135025,260.460999 188.106354,241.965942 188.142380,223.471024 
	C188.191833,198.096039 204.314224,182.027527 229.711029,181.996445 
	C241.351547,181.982193 252.992111,181.994019 265.134735,181.994019 
	C265.231140,179.940125 265.358673,178.190048 265.388153,176.438324 
	C265.581390,164.951843 265.381042,153.444275 266.018616,141.983063 
	C267.007202,124.212090 282.199860,109.197639 300.041107,107.973541 
	C306.842529,107.506897 313.680481,107.572914 321.001404,107.396393 
z"/>
<path fill="#FFFDFC" opacity="1.000000" stroke="none" 
	d="
M272.377777,323.414307 
	C283.953705,311.194977 302.479584,307.983734 316.463348,315.546021 
	C329.477264,322.583832 335.825836,336.306488 332.821136,350.904205 
	C330.077271,364.234985 317.625977,374.807129 303.349731,375.927887 
	C281.401367,377.650970 264.628876,363.228485 265.163361,343.011810 
	C265.353210,335.831390 267.602631,329.326019 272.377777,323.414307 
M305.333496,324.776276 
	C292.991333,321.823883 282.417603,327.982910 280.213379,339.408356 
	C277.892334,351.439240 284.867981,361.724182 296.629028,363.611755 
	C305.992767,365.114532 315.277771,359.306549 317.936188,350.283661 
	C321.145996,339.389313 316.630707,329.730652 305.333496,324.776276 
z"/>
<path fill="#FFFEFD" opacity="1.000000" stroke="none" 
	d="
M205.117371,324.122986 
	C202.675781,324.123016 200.717819,324.123016 198.461227,324.123016 
	C198.461227,328.819702 198.461227,333.035736 198.461227,337.733368 
	C207.978882,337.733368 217.227722,337.733368 226.800430,337.733368 
	C226.800430,341.598297 226.800430,344.993622 226.800430,348.974243 
	C217.392456,348.974243 208.006729,348.974243 198.445312,348.974243 
	C198.445312,353.955109 198.445312,358.356476 198.445312,363.251373 
	C209.639923,363.251373 220.556503,363.251373 231.793854,363.251373 
	C231.793854,367.297302 231.793854,370.857788 231.793854,374.714508 
	C216.010254,374.714508 200.280304,374.714508 183.938797,374.714508 
	C183.938797,364.389801 183.938797,354.129486 183.938797,343.869141 
	C183.938797,333.734863 183.938797,323.600586 183.938797,313.092773 
	C199.635101,313.092773 215.007782,313.092773 230.704025,313.092773 
	C230.704025,316.484528 230.704025,319.908936 230.704025,324.122925 
	C222.418915,324.122925 214.009964,324.122925 205.117371,324.122986 
z"/>
<path fill="#FFFCFB" opacity="1.000000" stroke="none" 
	d="
M110.312256,373.880402 
	C96.089462,367.490601 88.669777,356.197144 89.410072,342.523438 
	C90.161583,328.642822 98.465942,317.637756 111.418839,313.357117 
	C125.120476,308.828979 140.182648,312.481079 148.796387,322.741882 
	C145.962296,325.403931 143.102966,328.089691 139.936096,331.064331 
	C134.518326,325.535919 127.964897,322.447113 120.588272,324.331116 
	C116.183655,325.456055 111.491982,327.998291 108.424210,331.294647 
	C101.748650,338.467682 102.832687,351.318848 109.751297,358.202942 
	C117.596451,366.008972 129.262909,365.554199 139.898392,356.650208 
	C142.734985,359.197937 145.643692,361.810486 148.525299,364.398651 
	C142.760925,374.591583 126.062508,378.762115 110.312256,373.880402 
z"/>
<path fill="#FEFBF8" opacity="1.000000" stroke="none" 
	d="
M369.256897,338.999939 
	C369.257050,330.048798 369.257050,321.597656 369.257050,312.863251 
	C374.387390,312.863251 378.961823,312.863251 383.929443,312.863251 
	C383.929443,329.621399 383.929443,346.064209 383.929443,363.048462 
	C394.373932,363.048462 404.441376,363.048462 414.789185,363.048462 
	C414.789185,367.173981 414.789185,370.762268 414.789185,374.684387 
	C399.872681,374.684387 384.952118,374.684387 369.256775,374.684387 
	C369.256775,363.013123 369.256775,351.256561 369.256897,338.999939 
z"/>
<path fill="#FFFEFC" opacity="1.000000" stroke="none" 
	d="
M235.404907,148.156113 
	C230.098007,155.713043 223.554764,158.399094 215.919754,156.381729 
	C208.978302,154.547638 203.646866,148.665833 203.009155,142.138351 
	C202.187836,133.731583 205.623001,127.262283 212.817062,123.667519 
	C219.296402,120.429886 227.020645,121.766922 232.598221,127.091545 
	C237.826233,132.082458 238.989777,140.080643 235.404907,148.156113 
z"/>
<path fill="#FEFCFA" opacity="1.000000" stroke="none" 
	d="
M374.099060,464.566895 
	C371.544922,469.789978 367.886810,471.606537 363.679626,469.815796 
	C359.772522,468.152863 358.451172,464.879913 359.155518,460.856842 
	C359.846619,456.909698 363.442444,454.468628 367.602600,454.863708 
	C372.161285,455.296631 374.153076,458.114380 374.099060,464.566895 
z"/>
<path fill="#FEFCFA" opacity="1.000000" stroke="none" 
	d="
M401.600281,468.763245 
	C395.645874,471.284515 391.228851,470.515106 390.005615,466.091187 
	C389.254456,463.374603 389.818817,459.169037 391.565216,457.222931 
	C393.121643,455.488495 397.329437,455.028687 399.981018,455.651154 
	C403.588745,456.498047 404.760010,460.084076 404.143433,463.679260 
	C403.854004,465.366821 402.693542,466.904968 401.600281,468.763245 
z"/>
<path fill="#FDF4EC" opacity="1.000000" stroke="none" 
	d="
M202.191040,463.304718 
	C200.048370,463.376617 198.302231,463.376617 196.324585,463.376617 
	C196.324585,460.518341 196.324585,458.106934 196.324585,455.350403 
	C199.807602,455.047211 203.719696,453.399048 205.738541,457.751617 
	C206.918976,460.296600 205.745560,462.609497 202.191040,463.304718 
z"/>
<path fill="#FEFCFA" opacity="1.000000" stroke="none" 
	d="
M93.861511,469.600647 
	C88.282722,464.655670 88.668304,457.038239 94.533272,455.457275 
	C96.982857,454.796967 100.999115,455.463837 102.549171,457.144684 
	C104.285820,459.027893 105.146599,463.123352 104.315987,465.545471 
	C103.592049,467.656555 100.074844,468.950287 97.602142,470.241974 
	C96.778854,470.672058 95.367897,469.977173 93.861511,469.600647 
z"/>
<path fill="#FDF4EC" opacity="1.000000" stroke="none" 
	d="
M343.767517,461.382324 
	C340.803314,462.273315 338.023987,462.797302 335.244629,463.321259 
	C334.838440,460.698303 334.432251,458.075348 334.034149,455.504669 
	C342.595276,454.204437 344.201080,455.198822 343.767517,461.382324 
z"/>
<path fill="#E68025" opacity="1.000000" stroke="none" 
	d="
M305.722809,324.883545 
	C316.630707,329.730652 321.145996,339.389313 317.936188,350.283661 
	C315.277771,359.306549 305.992767,365.114532 296.629028,363.611755 
	C284.867981,361.724182 277.892334,351.439240 280.213379,339.408356 
	C282.417603,327.982910 292.991333,321.823883 305.722809,324.883545 
z"/>
</svg>